# xmcd
#
# Track frame offsets:
#	150
#	17143
#	31870
#	50514
#	68229
#	82751
#	98008
#	113877
#	131081
#	147606
#	164599
#	179326
#	197970
#	215685
#	230207
#	245464
#	261333
#	278537
#
# Disc length: 3934 seconds
#
# Revision: 1
# Processed by: cddbd v1.5.2PL0 Copyright (c) Steve Scherf et al.
# Submitted via: audiograbber 1.83.01
#
DISCID=0e0f5c12
DTITLE=Various Artist - PHMC1206
DYEAR=2012
DGENRE=Karaoke
TTITLE0=The Band Perry - Postcard From Paris
TTITLE1=Craig Morgan - Being Alive And Livin'
TTITLE2=Alison Krauss and Union Station - My Love Follows You Where You Go
TTITLE3=Granger Smith - Red Dirt
TTITLE4=Logan Mize - Sunflowers
TTITLE5=Megan Redmond - Falling
TTITLE6=Brad Wolf - Too Many Mondays
TTITLE7=Vince Gill - Guitar Slinger
TTITLE8=Buddy Jewel - Jesus Elvis And Me
TTITLE9=The Band Perry - Postcard From Paris (MPX)
TTITLE10=Craig Morgan - Being Alive And Livin' (MPX)
TTITLE11=Alison Krauss and Union Station - My Love Follows You (MPX)
TTITLE12=Granger Smith - Red Dirt (MPX)
TTITLE13=Logan Mize - Sunflowers (MPX)
TTITLE14=Megan Redmond - Falling (MPX)
TTITLE15=Brad Wolf - Too Many Mondays (MPX)
TTITLE16=Vince Gill - Guitar Slingers (MPX)
TTITLE17=Buddy Jewel - Jesus Elvis And Me (MPX)
EXTD=
EXTT0=
EXTT1=
EXTT2=
EXTT3=
EXTT4=
EXTT5=
EXTT6=
EXTT7=
EXTT8=
EXTT9=
EXTT10=
EXTT11=
EXTT12=
EXTT13=
EXTT14=
EXTT15=
EXTT16=
EXTT17=
PLAYORDER=
